<svg width="26" height="24" viewBox="0 0 26 24" fill="none" xmlns="http://www.w3.org/2000/svg">
<rect width="26" height="24" fill="#F5F5F5"/>
<g id="Product infor" clip-path="url(#clip0_0_1)">
<rect width="1280" height="3154" transform="translate(-134 -2048)" fill="white"/>
<g id="Frame 426">
<rect width="1288" height="616" transform="translate(-134 -250)" fill="white"/>
<g id="Frame 425">
<g id="Frame 422">
<g id="Frame 420">
<g id="Frame 419">
<g id="Frame 409">
<g id="Frame 407">
<g id="Group23-31-likedislike-31-Reviewss-31-Home">
<path id="Vector-31-like-31-Group16-31-Reviewss-31-Home" d="M25.6 12.16C25.6 10.48 24.24 9.6 22.4 9.6H17.04C17.44 8.16 17.6 6.8 17.6 5.6C17.6 0.96 16.32 0 15.2 0C14.48 0 13.92 0.0800003 13.2 0.48C12.96 0.64 12.88 0.8 12.8 1.04L12 5.36C11.12 7.6 8.95995 9.6 7.19995 10.96V22.4C7.83995 22.4 8.47995 22.72 9.27995 23.12C10.16 23.52 11.04 24 12 24H19.6C21.2 24 22.4 22.72 22.4 21.6C22.4 21.36 22.4 21.2 22.32 21.04C23.28 20.64 24 19.84 24 18.8C24 18.32 23.92 17.92 23.76 17.52C24.4 17.12 24.96 16.4 24.96 15.6C24.96 15.12 24.7199 14.64 24.4799 14.24C25.1199 13.76 25.6 12.96 25.6 12.16ZM23.92 12.16C23.92 13.2 22.88 13.28 22.72 13.76C22.56 14.32 23.36 14.48 23.36 15.44C23.36 16.4 22.16 16.4 22 16.96C21.84 17.6 22.4 17.76 22.4 18.72V18.88C22.24 19.68 21.04 19.76 20.8 20.08C20.56 20.48 20.8 20.64 20.8 21.52C20.8 22 20.24 22.32 19.6 22.32H12C11.36 22.32 10.72 22 9.91995 21.6C9.27995 21.28 8.63995 20.96 7.99995 20.8V12.4C9.99995 10.88 12.56 8.64 13.52 5.84V5.68L14.24 1.68C14.56 1.6 14.8 1.6 15.2 1.6C15.36 1.6 16 2.56 16 5.6C16 6.8 15.76 8.08 15.36 9.6H15.2C14.72 9.6 14.4 9.92 14.4 10.4C14.4 10.88 14.72 11.2 15.2 11.2H22.4C23.2 11.2 23.92 11.6 23.92 12.16Z" fill="black"/>
<path id="Vector-31-like-31-Group16-31-Reviewss-31-Home0" d="M6.4 24H1.6C0.72 24 0 23.28 0 22.4V11.2C0 10.32 0.72 9.59998 1.6 9.59998H6.4C7.28 9.59998 8 10.32 8 11.2V22.4C8 23.28 7.28 24 6.4 24ZM1.6 11.2V22.4H6.4V11.2H1.6Z" fill="black"/>
</g>
</g>
</g>
</g>
</g>
</g>
</g>
</g>
</g>
<defs>
<clipPath id="clip0_0_1">
<rect width="1280" height="3154" fill="white" transform="translate(-134 -2048)"/>
</clipPath>
</defs>
</svg>
