<svg width="26" height="24" viewBox="0 0 26 24" fill="none" xmlns="http://www.w3.org/2000/svg">
<g id="Group 165">
<path id="Vector-31-DISLIKE-31-Group17-31-Reviewss-31-Home0" d="M19.1807 1.90735e-06H23.8259C24.6775 1.90735e-06 25.3743 0.696776 25.3743 1.54839V12.3871C25.3743 13.2387 24.6775 13.9355 23.8259 13.9355H19.1807C18.3291 13.9355 17.6323 13.2387 17.6323 12.3871V1.54839C17.6323 0.696776 18.3291 1.90735e-06 19.1807 1.90735e-06ZM23.8259 12.3871V1.54839H19.1807V12.3871H23.8259Z" fill="black"/>
<g id="Group22-31-likedislike-31-Reviewss-31-Home">
<path id="Vector-31-DISLIKE-31-Group17-31-Reviewss-31-Home" d="M0.600042 12.232C0.600042 13.8578 1.91617 14.7094 3.69682 14.7094H8.88391C8.49682 16.103 8.34198 17.4191 8.34198 18.5804C8.34198 23.0707 9.58069 23.9998 10.6646 23.9998C11.3613 23.9998 11.9033 23.9223 12.6 23.5352C12.8323 23.3804 12.9097 23.2256 12.9871 22.9933L13.7613 18.8127C14.6129 16.6449 16.7033 14.7094 18.4065 13.3933V2.32234C17.7871 2.32234 17.1678 2.01266 16.3936 1.62556C15.542 1.23846 14.6904 0.773949 13.7613 0.773949H6.40649C4.85811 0.773949 3.69682 2.01266 3.69682 3.09653C3.69682 3.32879 3.69681 3.48363 3.77423 3.63847C2.8452 4.02556 2.14843 4.79976 2.14843 5.80621C2.14843 6.27072 2.22585 6.65782 2.38069 7.04492C1.76133 7.43201 1.2194 8.12879 1.2194 8.90298C1.2194 9.3675 1.45166 9.83201 1.68391 10.2191C1.06456 10.6836 0.600042 11.4578 0.600042 12.232ZM2.22585 12.232C2.22585 11.2256 3.2323 11.1481 3.38714 10.6836C3.54198 10.1417 2.76778 9.98685 2.76778 9.05782C2.76778 8.12879 3.92907 8.12879 4.08391 7.58685C4.23875 6.9675 3.69682 6.81266 3.69682 5.88363V5.72879C3.85166 4.95459 5.01295 4.87718 5.2452 4.5675C5.47746 4.1804 5.2452 4.02556 5.2452 3.17395C5.2452 2.70943 5.78714 2.39975 6.40649 2.39975H13.7613C14.3807 2.39975 15 2.70943 15.7742 3.09653C16.3936 3.40621 17.0129 3.71588 17.6323 3.87072V11.9998C15.6968 13.4707 13.2194 15.6385 12.2904 18.3481V18.503L11.5936 22.3739C11.2839 22.4514 11.0517 22.4514 10.6646 22.4514C10.5097 22.4514 9.89036 21.5223 9.89036 18.5804C9.89036 17.4191 10.1226 16.1804 10.5097 14.7094H10.6646C11.1291 14.7094 11.4388 14.3998 11.4388 13.9352C11.4388 13.4707 11.1291 13.161 10.6646 13.161H3.69682C2.92262 13.161 2.22585 12.7739 2.22585 12.232Z" fill="black"/>
</g>
</g>
</svg>
